STARTFONT 2.1
FONT Font
SIZE 16 75 75
FONTBOUNDINGBOX 16 16 0 -2
STARTPROPERTIES 6
PIXEL_SIZE 16
POINT_SIZE 160
SPACING "C"
FONT_ASCENT 14
FONT_DESCENT 2
_GBDFED_INFO "Edited with gbdfed 1.6."
ENDPROPERTIES
CHARS 256
STARTCHAR U+0100
ENCODING 256
SWIDTH 960 0
DWIDTH 16 0
BBX 16 16 0 -2
BITMAP
0000
0000
0000
0000
0000
0000
0000
0000
0000
0000
0000
0000
0000
0000
0000
0000
ENDCHAR
STARTCHAR U+0101
ENCODING 257
SWIDTH 960 0
DWIDTH 16 0
BBX 16 16 0 -2
BITMAP
0000
0000
0000
7FF8
0018
0018
0018
0018
0018
0018
0018
0018
0018
0000
0000
0000
ENDCHAR
STARTCHAR U+0102
ENCODING 258
SWIDTH 960 0
DWIDTH 16 0
BBX 16 16 0 -2
BITMAP
0000
0000
0000
7FF8
0618
0618
0618
0618
0618
0618
0618
0618
0618
0000
0000
0000
ENDCHAR
STARTCHAR U+0103
ENCODING 259
SWIDTH 960 0
DWIDTH 16 0
BBX 16 16 0 -2
BITMAP
0000
0000
0000
7E60
0660
0660
0660
0660
06F0
06F0
0798
0798
070C
0000
0000
0000
ENDCHAR
STARTCHAR U+0104
ENCODING 260
SWIDTH 960 0
DWIDTH 16 0
BBX 16 16 0 -2
BITMAP
0000
0000
0000
6000
6000
6000
6000
6000
6000
6000
6000
6000
3FF8
0000
0000
0000
ENDCHAR
STARTCHAR U+0105
ENCODING 261
SWIDTH 960 0
DWIDTH 16 0
BBX 16 16 0 -2
BITMAP
0000
0000
0000
63FC
6060
6060
6060
6060
60F0
60F0
6198
6198
3F0C
0000
0000
0000
ENDCHAR
STARTCHAR U+0106
ENCODING 262
SWIDTH 960 0
DWIDTH 16 0
BBX 16 16 0 -2
BITMAP
0000
0000
0000
60F0
6000
63FC
6000
60F0
6198
6198
6198
6198
3EF0
0000
0000
0000
ENDCHAR
STARTCHAR U+0107
ENCODING 263
SWIDTH 960 0
DWIDTH 16 0
BBX 16 16 0 -2
BITMAP
0000
0000
0000
7FF8
6000
6000
6000
6000
6000
6000
6000
6000
3FF8
0000
0000
0000
ENDCHAR
STARTCHAR U+0108
ENCODING 264
SWIDTH 960 0
DWIDTH 16 0
BBX 16 16 0 -2
BITMAP
0000
0000
0000
7EF8
6180
6180
6180
6180
6180
6180
6180
6180
3EF8
0000
0000
0000
ENDCHAR
STARTCHAR U+0109
ENCODING 265
SWIDTH 960 0
DWIDTH 16 0
BBX 16 16 0 -2
BITMAP
0000
0000
0000
7FF8
0018
0018
0018
7FF0
6000
6000
6000
6000
3FF8
0000
0000
0000
ENDCHAR
STARTCHAR U+010A
ENCODING 266
SWIDTH 960 0
DWIDTH 16 0
BBX 16 16 0 -2
BITMAP
0000
0000
0000
7EFC
060C
060C
060C
7C0C
600C
600C
600C
600C
3E0C
0000
0000
0000
ENDCHAR
STARTCHAR U+010B
ENCODING 267
SWIDTH 960 0
DWIDTH 16 0
BBX 16 16 0 -2
BITMAP
0000
0000
0000
7EFC
06CC
06CC
06CC
7CCC
60CC
60CC
60CC
60CC
3E7C
0000
0000
0000
ENDCHAR
STARTCHAR U+010C
ENCODING 268
SWIDTH 960 0
DWIDTH 16 0
BBX 16 16 0 -2
BITMAP
0000
0000
0000
7ECC
06CC
06CC
06CC
7CFC
60CC
60CC
60CC
60CC
3E7C
0000
0000
0000
ENDCHAR
STARTCHAR U+010D
ENCODING 269
SWIDTH 960 0
DWIDTH 16 0
BBX 16 16 0 -2
BITMAP
0000
0000
0000
7E60
0660
0660
0660
7C60
60F0
60F0
6198
6198
3F0C
0000
0000
0000
ENDCHAR
STARTCHAR U+010E
ENCODING 270
SWIDTH 960 0
DWIDTH 16 0
BBX 16 16 0 -2
BITMAP
0000
0000
0000
7EFC
06C0
06C0
06C0
7CF8
60C0
60C0
60C0
60C0
3E7C
0000
0000
0000
ENDCHAR
STARTCHAR U+010F
ENCODING 271
SWIDTH 960 0
DWIDTH 16 0
BBX 16 16 0 -2
BITMAP
0000
0000
0000
7DFC
0600
06D8
06D8
7CD8
60D8
60D8
60D8
60D8
3FFC
0000
0000
0000
ENDCHAR
STARTCHAR U+0110
ENCODING 272
SWIDTH 960 0
DWIDTH 16 0
BBX 16 16 0 -2
BITMAP
0000
0000
0000
7EF0
0600
07FC
0600
7CF0
6198
6198
6198
6198
3EF0
0000
0000
0000
ENDCHAR
STARTCHAR U+0111
ENCODING 273
SWIDTH 960 0
DWIDTH 16 0
BBX 16 16 0 -2
BITMAP
0000
0000
0000
7FF8
6018
6018
6018
6018
6018
6018
6018
6018
3FF8
0000
0000
0000
ENDCHAR
STARTCHAR U+0112
ENCODING 274
SWIDTH 960 0
DWIDTH 16 0
BBX 16 16 0 -2
BITMAP
0000
0000
0000
6018
6018
6018
6018
7FF8
6018
6018
6018
6018
3FF8
0000
0000
0000
ENDCHAR
STARTCHAR U+0113
ENCODING 275
SWIDTH 960 0
DWIDTH 16 0
BBX 16 16 0 -2
BITMAP
0000
0000
0000
66CC
66CC
66CC
66CC
7EFC
66CC
66CC
66CC
66CC
3E7C
0000
0000
0000
ENDCHAR
STARTCHAR U+0114
ENCODING 276
SWIDTH 960 0
DWIDTH 16 0
BBX 16 16 0 -2
BITMAP
0000
0000
0000
6660
6660
6660
6660
7E60
66F0
66F0
6798
6798
3F0C
0000
0000
0000
ENDCHAR
STARTCHAR U+0115
ENCODING 277
SWIDTH 960 0
DWIDTH 16 0
BBX 16 16 0 -2
BITMAP
0000
0000
0000
0300
0300
0300
0780
0780
0CC0
0CC0
1860
3030
6018
0000
0000
0000
ENDCHAR
STARTCHAR U+0116
ENCODING 278
SWIDTH 960 0
DWIDTH 16 0
BBX 16 16 0 -2
BITMAP
0000
0000
0000
0C60
0C60
0C60
0C60
0C60
1EF0
1EF0
3398
3398
610C
0000
0000
0000
ENDCHAR
STARTCHAR U+0117
ENCODING 279
SWIDTH 960 0
DWIDTH 16 0
BBX 16 16 0 -2
BITMAP
0000
0000
0000
0FC0
1860
3030
6018
6018
6018
6018
3030
1860
0FC0
0000
0000
0000
ENDCHAR
STARTCHAR U+0118
ENCODING 280
SWIDTH 960 0
DWIDTH 16 0
BBX 16 16 0 -2
BITMAP
0000
0000
0000
7FF8
0300
0300
0300
0780
0780
0CC0
1860
3030
6018
0000
0000
0000
ENDCHAR
STARTCHAR U+0119
ENCODING 281
SWIDTH 960 0
DWIDTH 16 0
BBX 16 16 0 -2
BITMAP
0000
0000
0000
7FFC
0C60
0C60
0C60
0C60
1EF0
1EF0
3398
3398
610C
0000
0000
0000
ENDCHAR
STARTCHAR U+011A
ENCODING 282
SWIDTH 960 0
DWIDTH 16 0
BBX 16 16 0 -2
BITMAP
0000
0000
0000
1FE0
0000
7FF8
0300
0300
0780
0780
0CC0
1860
7038
0000
0000
0000
ENDCHAR
STARTCHAR U+011B
ENCODING 283
SWIDTH 960 0
DWIDTH 16 0
BBX 16 16 0 -2
BITMAP
0000
0000
0000
7FF8
0018
0018
0018
0018
7FF8
0018
0018
0018
0018
0000
0000
0000
ENDCHAR
STARTCHAR U+011C
ENCODING 284
SWIDTH 960 0
DWIDTH 16 0
BBX 16 16 0 -2
BITMAP
0000
0000
0000
7FF8
6000
6000
6000
7FF8
6000
6000
6000
6000
3FF8
0000
0000
0000
ENDCHAR
STARTCHAR U+011D
ENCODING 285
SWIDTH 960 0
DWIDTH 16 0
BBX 16 16 0 -2
BITMAP
0000
0000
0000
7FF8
1860
1860
1860
1860
1860
1860
1860
1860
7FF8
0000
0000
0000
ENDCHAR
STARTCHAR U+011E
ENCODING 286
SWIDTH 960 0
DWIDTH 16 0
BBX 16 16 0 -2
BITMAP
0000
0000
0000
1FE0
0000
7FF8
0000
0FC0
1860
3030
3030
1860
0FC0
0000
0000
0000
ENDCHAR
STARTCHAR U+011F
ENCODING 287
SWIDTH 960 0
DWIDTH 16 0
BBX 16 16 0 -2
BITMAP
0000
0000
0300
0300
0300
0300
0300
0300
03E0
0300
0300
0300
0300
0300
0300
0300
ENDCHAR
STARTCHAR U+0120
ENCODING 288
SWIDTH 960 0
DWIDTH 16 0
BBX 16 16 0 -2
BITMAP
0000
0000
0CC0
0CC0
0CC0
0CC0
0CC0
0CC0
0FC0
0CC0
0CC0
0CC0
0CC0
0CC0
0CC0
0CC0
ENDCHAR
STARTCHAR U+0121
ENCODING 289
SWIDTH 960 0
DWIDTH 16 0
BBX 16 16 0 -2
BITMAP
0000
0000
0300
0300
0300
0300
03E0
0300
0300
0300
03E0
0300
0300
0300
0300
0300
ENDCHAR
STARTCHAR U+0122
ENCODING 290
SWIDTH 960 0
DWIDTH 16 0
BBX 16 16 0 -2
BITMAP
0000
0000
0CC0
0CC0
0CC0
0CC0
0FC0
0CC0
0CC0
0CC0
0FC0
0CC0
0CC0
0CC0
0CC0
0CC0
ENDCHAR
STARTCHAR U+0123
ENCODING 291
SWIDTH 960 0
DWIDTH 16 0
BBX 16 16 0 -2
BITMAP
0000
0000
0300
0300
0300
0300
0300
0300
1F00
0300
0300
0300
0300
0300
0300
0300
ENDCHAR
STARTCHAR U+0124
ENCODING 292
SWIDTH 960 0
DWIDTH 16 0
BBX 16 16 0 -2
BITMAP
0000
0000
0CC0
0CC0
0CC0
0CC0
0CC0
0CC0
7CC0
0CC0
0CC0
0CC0
0CC0
0CC0
0CC0
0CC0
ENDCHAR
STARTCHAR U+0125
ENCODING 293
SWIDTH 960 0
DWIDTH 16 0
BBX 16 16 0 -2
BITMAP
0000
0000
0300
0300
0300
0300
1F00
0300
0300
0300
1F00
0300
0300
0300
0300
0300
ENDCHAR
STARTCHAR U+0126
ENCODING 294
SWIDTH 960 0
DWIDTH 16 0
BBX 16 16 0 -2
BITMAP
0000
0000
0CC0
0CC0
0CC0
0CC0
7CC0
0CC0
0CC0
0CC0
7CC0
0CC0
0CC0
0CC0
0CC0
0CC0
ENDCHAR
STARTCHAR U+0127
ENCODING 295
SWIDTH 960 0
DWIDTH 16 0
BBX 16 16 0 -2
BITMAP
0000
0000
0000
0000
0000
0000
0000
0000
0000
0000
0300
0300
0300
FFFC
0000
0000
ENDCHAR
STARTCHAR U+0128
ENCODING 296
SWIDTH 960 0
DWIDTH 16 0
BBX 16 16 0 -2
BITMAP
0000
0000
0030
0030
0030
0030
0030
0030
003C
0030
1830
1830
1830
FFB0
0030
0030
ENDCHAR
STARTCHAR U+0129
ENCODING 297
SWIDTH 960 0
DWIDTH 16 0
BBX 16 16 0 -2
BITMAP
0000
0000
006C
006C
006C
006C
006C
006C
007C
006C
186C
186C
186C
FF6C
006C
006C
ENDCHAR
STARTCHAR U+012A
ENCODING 298
SWIDTH 960 0
DWIDTH 16 0
BBX 16 16 0 -2
BITMAP
0000
0000
000C
000C
000C
000C
000C
000C
000C
000C
0C0C
0C0C
0C0C
FFEC
000C
000C
ENDCHAR
STARTCHAR U+012B
ENCODING 299
SWIDTH 960 0
DWIDTH 16 0
BBX 16 16 0 -2
BITMAP
0000
0000
0000
0000
0000
0000
0000
0000
0000
0000
1860
1860
1860
FFFC
0000
0000
ENDCHAR
STARTCHAR U+012C
ENCODING 300
SWIDTH 960 0
DWIDTH 16 0
BBX 16 16 0 -2
BITMAP
0000
0000
0000
0000
0000
0000
0000
0000
FFFC
0300
0300
0300
0300
0300
0300
0300
ENDCHAR
STARTCHAR U+012D
ENCODING 301
SWIDTH 960 0
DWIDTH 16 0
BBX 16 16 0 -2
BITMAP
0000
0000
000C
000C
000C
000C
000C
000C
FFEC
0C0C
0C0C
0C7C
0C0C
0C0C
0C0C
0C0C
ENDCHAR
STARTCHAR U+012E
ENCODING 302
SWIDTH 960 0
DWIDTH 16 0
BBX 16 16 0 -2
BITMAP
0000
0000
006C
006C
006C
006C
006C
006C
FF6C
186C
186C
19EC
186C
186C
186C
186C
ENDCHAR
STARTCHAR U+012F
ENCODING 303
SWIDTH 960 0
DWIDTH 16 0
BBX 16 16 0 -2
BITMAP
0000
0000
000C
000C
000C
000C
000C
000C
FFEC
0C0C
0C0C
0C0C
0C0C
0C0C
0C0C
0C0C
ENDCHAR
STARTCHAR U+0130
ENCODING 304
SWIDTH 960 0
DWIDTH 16 0
BBX 16 16 0 -2
BITMAP
0000
0000
0000
0000
0000
0000
0000
0000
FFFC
1860
1860
1860
1860
1860
1860
1860
ENDCHAR
STARTCHAR U+0131
ENCODING 305
SWIDTH 960 0
DWIDTH 16 0
BBX 16 16 0 -2
BITMAP
0000
0000
0000
0000
0000
0000
0000
0000
FFFC
0000
0000
0000
0000
0000
0000
0000
ENDCHAR
STARTCHAR U+0132
ENCODING 306
SWIDTH 960 0
DWIDTH 16 0
BBX 16 16 0 -2
BITMAP
0000
0000
000C
000C
000C
000C
000C
000C
000C
000C
000C
000C
000C
FFEC
000C
000C
ENDCHAR
STARTCHAR U+0133
ENCODING 307
SWIDTH 960 0
DWIDTH 16 0
BBX 16 16 0 -2
BITMAP
0000
0000
0300
0300
0300
0300
0300
0300
0300
0300
0300
0300
0300
0300
0300
0300
ENDCHAR
STARTCHAR U+0134
ENCODING 308
SWIDTH 960 0
DWIDTH 16 0
BBX 16 16 0 -2
BITMAP
0000
0000
0000
FF00
0300
0300
0300
0300
0600
0600
0C00
3800
E000
0000
0000
0000
ENDCHAR
STARTCHAR U+0135
ENCODING 309
SWIDTH 960 0
DWIDTH 16 0
BBX 16 16 0 -2
BITMAP
0000
0000
0000
FF00
1B00
1B00
1B00
1B00
1B00
3600
3600
6C00
D800
0000
0000
0000
ENDCHAR
STARTCHAR U+0136
ENCODING 310
SWIDTH 960 0
DWIDTH 16 0
BBX 16 16 0 -2
BITMAP
0000
0000
0000
C000
C000
C000
C000
C000
C000
C000
C000
C000
7F00
0000
0000
0000
ENDCHAR
STARTCHAR U+0137
ENCODING 311
SWIDTH 960 0
DWIDTH 16 0
BBX 16 16 0 -2
BITMAP
0000
0000
0000
FF00
C000
C000
C000
C000
C000
C000
C000
C000
7F00
0000
0000
0000
ENDCHAR
STARTCHAR U+0138
ENCODING 312
SWIDTH 960 0
DWIDTH 16 0
BBX 16 16 0 -2
BITMAP
0000
0000
0000
FF00
CC00
CC00
CC00
CC00
CC00
CC00
CC00
CC00
7700
0000
0000
0000
ENDCHAR
STARTCHAR U+0139
ENCODING 313
SWIDTH 960 0
DWIDTH 16 0
BBX 16 16 0 -2
BITMAP
0000
0000
0000
FF00
0300
0300
0300
FE00
C000
C000
C000
C000
7F00
0000
0000
0000
ENDCHAR
STARTCHAR U+013A
ENCODING 314
SWIDTH 960 0
DWIDTH 16 0
BBX 16 16 0 -2
BITMAP
0000
0000
0000
FF00
C300
C300
C300
C300
C300
C300
C300
C300
7F00
0000
0000
0000
ENDCHAR
STARTCHAR U+013B
ENCODING 315
SWIDTH 960 0
DWIDTH 16 0
BBX 16 16 0 -2
BITMAP
0000
0000
0000
C300
C300
C300
C300
FF00
C300
C300
C300
C300
7F00
0000
0000
0000
ENDCHAR
STARTCHAR U+013C
ENCODING 316
SWIDTH 960 0
DWIDTH 16 0
BBX 16 16 0 -2
BITMAP
0000
0000
0000
DB00
DB00
DB00
DB00
FF00
DB00
DB00
DB00
DB00
7F00
0000
0000
0000
ENDCHAR
STARTCHAR U+013D
ENCODING 317
SWIDTH 960 0
DWIDTH 16 0
BBX 16 16 0 -2
BITMAP
0000
0000
0000
1800
1800
1800
1800
1800
3C00
3C00
6600
6600
C300
0000
0000
0000
ENDCHAR
STARTCHAR U+013E
ENCODING 318
SWIDTH 960 0
DWIDTH 16 0
BBX 16 16 0 -2
BITMAP
0000
0000
0000
6600
6600
6600
6600
6600
6600
FF00
DB00
DB00
DB00
0000
0000
0000
ENDCHAR
STARTCHAR U+013F
ENCODING 319
SWIDTH 960 0
DWIDTH 16 0
BBX 16 16 0 -2
BITMAP
0000
0000
0000
3C00
6600
C300
C300
C300
C300
C300
C300
6600
3C00
0000
0000
0000
ENDCHAR
STARTCHAR U+0140
ENCODING 320
SWIDTH 960 0
DWIDTH 16 0
BBX 16 16 0 -2
BITMAP
0000
0000
0000
FF00
1800
1800
1800
1800
3C00
3C00
6600
6600
C300
0000
0000
0000
ENDCHAR
STARTCHAR U+0141
ENCODING 321
SWIDTH 960 0
DWIDTH 16 0
BBX 16 16 0 -2
BITMAP
0000
0000
0000
FF00
6600
6600
6600
6600
6600
6600
FF00
DB00
DB00
0000
0000
0000
ENDCHAR
STARTCHAR U+0142
ENCODING 322
SWIDTH 960 0
DWIDTH 16 0
BBX 16 16 0 -2
BITMAP
0000
0000
0000
3C00
0000
FF00
1800
1800
3C00
3C00
6600
6600
C300
0000
0000
0000
ENDCHAR
STARTCHAR U+0143
ENCODING 323
SWIDTH 960 0
DWIDTH 16 0
BBX 16 16 0 -2
BITMAP
0000
0000
0000
FF00
0300
0300
0300
FF00
0600
0600
0C00
3800
E000
0000
0000
0000
ENDCHAR
STARTCHAR U+0144
ENCODING 324
SWIDTH 960 0
DWIDTH 16 0
BBX 16 16 0 -2
BITMAP
0000
0000
0000
FF00
C000
C000
C000
FC00
C000
C000
C000
C000
7F00
0000
0000
0000
ENDCHAR
STARTCHAR U+0145
ENCODING 325
SWIDTH 960 0
DWIDTH 16 0
BBX 16 16 0 -2
BITMAP
0000
0000
0000
FF00
0000
6600
6600
6600
6600
6600
6600
6600
FF00
0000
0000
0000
ENDCHAR
STARTCHAR U+0146
ENCODING 326
SWIDTH 960 0
DWIDTH 16 0
BBX 16 16 0 -2
BITMAP
0000
0000
0000
3E00
0000
FF80
0000
3E00
6300
6300
6300
6300
3E00
0000
0000
0000
ENDCHAR
STARTCHAR U+0147
ENCODING 327
SWIDTH 960 0
DWIDTH 16 0
BBX 16 16 0 -2
BITMAP
0000
0000
0000
FF00
0300
0300
0300
0300
0300
0300
0300
0000
0000
0000
0000
0000
ENDCHAR
STARTCHAR U+0148
ENCODING 328
SWIDTH 960 0
DWIDTH 16 0
BBX 16 16 0 -2
BITMAP
0000
0000
0000
FF00
1B00
1B00
1B00
1B00
3300
6600
0000
0000
0000
0000
0000
0000
ENDCHAR
STARTCHAR U+0149
ENCODING 329
SWIDTH 960 0
DWIDTH 16 0
BBX 16 16 0 -2
BITMAP
0000
0000
0000
C000
C000
C000
C000
C000
C000
7F00
0000
0000
0000
0000
0000
0000
ENDCHAR
STARTCHAR U+014A
ENCODING 330
SWIDTH 960 0
DWIDTH 16 0
BBX 16 16 0 -2
BITMAP
0000
0000
0000
FF00
C000
C000
C000
C000
C000
7F00
0000
0000
0000
0000
0000
0000
ENDCHAR
STARTCHAR U+014B
ENCODING 331
SWIDTH 960 0
DWIDTH 16 0
BBX 16 16 0 -2
BITMAP
0000
0000
0000
FF00
CC00
CC00
CC00
CC00
CC00
7700
0000
0000
0000
0000
0000
0000
ENDCHAR
STARTCHAR U+014C
ENCODING 332
SWIDTH 960 0
DWIDTH 16 0
BBX 16 16 0 -2
BITMAP
0000
0000
0000
FF00
0300
0300
FE00
C000
C000
7F00
0000
0000
0000
0000
0000
0000
ENDCHAR
STARTCHAR U+014D
ENCODING 333
SWIDTH 960 0
DWIDTH 16 0
BBX 16 16 0 -2
BITMAP
0000
0000
0000
FF00
C300
C300
C300
C300
C300
7F00
0000
0000
0000
0000
0000
0000
ENDCHAR
STARTCHAR U+014E
ENCODING 334
SWIDTH 960 0
DWIDTH 16 0
BBX 16 16 0 -2
BITMAP
0000
0000
0000
C300
C300
C300
FF00
C300
C300
7F00
0000
0000
0000
0000
0000
0000
ENDCHAR
STARTCHAR U+014F
ENCODING 335
SWIDTH 960 0
DWIDTH 16 0
BBX 16 16 0 -2
BITMAP
0000
0000
0000
DB00
DB00
DB00
FF00
DB00
DB00
7F00
0000
0000
0000
0000
0000
0000
ENDCHAR
STARTCHAR U+0150
ENCODING 336
SWIDTH 960 0
DWIDTH 16 0
BBX 16 16 0 -2
BITMAP
0000
0000
0000
1800
1800
1800
1800
3C00
6600
C300
0000
0000
0000
0000
0000
0000
ENDCHAR
STARTCHAR U+0151
ENCODING 337
SWIDTH 960 0
DWIDTH 16 0
BBX 16 16 0 -2
BITMAP
0000
0000
0000
6600
6600
6600
6600
FF00
DB00
DB00
0000
0000
0000
0000
0000
0000
ENDCHAR
STARTCHAR U+0152
ENCODING 338
SWIDTH 960 0
DWIDTH 16 0
BBX 16 16 0 -2
BITMAP
0000
0000
0000
3C00
6600
C300
C300
C300
6600
3C00
0000
0000
0000
0000
0000
0000
ENDCHAR
STARTCHAR U+0153
ENCODING 339
SWIDTH 960 0
DWIDTH 16 0
BBX 16 16 0 -2
BITMAP
0000
0000
0000
FF00
1800
1800
1800
3C00
6600
C300
0000
0000
0000
0000
0000
0000
ENDCHAR
STARTCHAR U+0154
ENCODING 340
SWIDTH 960 0
DWIDTH 16 0
BBX 16 16 0 -2
BITMAP
0000
0000
0000
FF00
6600
6600
6600
7E00
DB00
DB00
0000
0000
0000
0000
0000
0000
ENDCHAR
STARTCHAR U+0155
ENCODING 341
SWIDTH 960 0
DWIDTH 16 0
BBX 16 16 0 -2
BITMAP
0000
0000
3C00
0000
FF00
1800
1800
3C00
6600
C300
0000
0000
0000
0000
0000
0000
ENDCHAR
STARTCHAR U+0156
ENCODING 342
SWIDTH 960 0
DWIDTH 16 0
BBX 16 16 0 -2
BITMAP
0000
0000
0000
FF00
0300
0300
FF00
0300
0300
0300
0300
0000
0000
0000
0000
0000
ENDCHAR
STARTCHAR U+0157
ENCODING 343
SWIDTH 960 0
DWIDTH 16 0
BBX 16 16 0 -2
BITMAP
0000
0000
0000
FF00
C000
C000
FE00
C000
C000
7F00
0000
0000
0000
0000
0000
0000
ENDCHAR
STARTCHAR U+0158
ENCODING 344
SWIDTH 960 0
DWIDTH 16 0
BBX 16 16 0 -2
BITMAP
0000
0000
0000
FF00
0000
6600
6600
6600
6600
FF00
0000
0000
0000
0000
0000
0000
ENDCHAR
STARTCHAR U+0159
ENCODING 345
SWIDTH 960 0
DWIDTH 16 0
BBX 16 16 0 -2
BITMAP
0000
0000
1C00
0000
FF80
3E00
6300
6300
6300
3E00
0000
0000
0000
0000
0000
0000
ENDCHAR
STARTCHAR U+015A
ENCODING 346
SWIDTH 960 0
DWIDTH 16 0
BBX 16 16 0 -2
BITMAP
0000
0000
0000
7FF8
0018
0018
0018
0018
0018
0018
0018
0000
0000
0000
0000
0000
ENDCHAR
STARTCHAR U+015B
ENCODING 347
SWIDTH 960 0
DWIDTH 16 0
BBX 16 16 0 -2
BITMAP
0000
0000
0000
7FF8
0618
0618
0C18
0C18
1818
3030
0000
0000
0000
0000
0000
0000
ENDCHAR
STARTCHAR U+015C
ENCODING 348
SWIDTH 960 0
DWIDTH 16 0
BBX 16 16 0 -2
BITMAP
0000
0000
0000
6000
6000
6000
6000
6000
6000
3FF8
0000
0000
0000
0000
0000
0000
ENDCHAR
STARTCHAR U+015D
ENCODING 349
SWIDTH 960 0
DWIDTH 16 0
BBX 16 16 0 -2
BITMAP
0000
0000
0000
7FF8
6000
6000
6000
6000
6000
3FF8
0000
0000
0000
0000
0000
0000
ENDCHAR
STARTCHAR U+015E
ENCODING 350
SWIDTH 960 0
DWIDTH 16 0
BBX 16 16 0 -2
BITMAP
0000
0000
0000
7FF8
6180
6180
6180
6180
6180
3EF8
0000
0000
0000
0000
0000
0000
ENDCHAR
STARTCHAR U+015F
ENCODING 351
SWIDTH 960 0
DWIDTH 16 0
BBX 16 16 0 -2
BITMAP
0000
0000
0000
7FF8
0018
0018
7FF0
6000
6000
3FF8
0000
0000
0000
0000
0000
0000
ENDCHAR
STARTCHAR U+0160
ENCODING 352
SWIDTH 960 0
DWIDTH 16 0
BBX 16 16 0 -2
BITMAP
0000
0000
0000
7FF8
6018
6018
6018
6018
6018
3FF8
0000
0000
0000
0000
0000
0000
ENDCHAR
STARTCHAR U+0161
ENCODING 353
SWIDTH 960 0
DWIDTH 16 0
BBX 16 16 0 -2
BITMAP
0000
0000
0000
6018
6018
6018
7FF8
6018
6018
3FF8
0000
0000
0000
0000
0000
0000
ENDCHAR
STARTCHAR U+0162
ENCODING 354
SWIDTH 960 0
DWIDTH 16 0
BBX 16 16 0 -2
BITMAP
0000
0000
0000
6318
6318
6318
7FF8
6318
6318
3FF8
0000
0000
0000
0000
0000
0000
ENDCHAR
STARTCHAR U+0163
ENCODING 355
SWIDTH 960 0
DWIDTH 16 0
BBX 16 16 0 -2
BITMAP
0000
0000
0000
0300
0300
0300
0780
0CC0
1860
7038
0000
0000
0000
0000
0000
0000
ENDCHAR
STARTCHAR U+0164
ENCODING 356
SWIDTH 960 0
DWIDTH 16 0
BBX 16 16 0 -2
BITMAP
0000
0000
0000
1860
1860
1860
1860
3CF0
6798
C30C
0000
0000
0000
0000
0000
0000
ENDCHAR
STARTCHAR U+0165
ENCODING 357
SWIDTH 960 0
DWIDTH 16 0
BBX 16 16 0 -2
BITMAP
0000
0000
0000
1FE0
3030
6018
6018
6018
3030
1FE0
0000
0000
0000
0000
0000
0000
ENDCHAR
STARTCHAR U+0166
ENCODING 358
SWIDTH 960 0
DWIDTH 16 0
BBX 16 16 0 -2
BITMAP
0000
0000
0000
7FF8
0300
0300
0780
0CC0
1860
7038
0000
0000
0000
0000
0000
0000
ENDCHAR
STARTCHAR U+0167
ENCODING 359
SWIDTH 960 0
DWIDTH 16 0
BBX 16 16 0 -2
BITMAP
0000
0000
0000
7FF8
1860
1860
1860
3CF0
6798
C30C
0000
0000
0000
0000
0000
0000
ENDCHAR
STARTCHAR U+0168
ENCODING 360
SWIDTH 960 0
DWIDTH 16 0
BBX 16 16 0 -2
BITMAP
0000
0000
0000
0FC0
0000
7FF8
0300
0780
1CE0
7038
0000
0000
0000
0000
0000
0000
ENDCHAR
STARTCHAR U+0169
ENCODING 361
SWIDTH 960 0
DWIDTH 16 0
BBX 16 16 0 -2
BITMAP
0000
0000
0000
7FF8
0018
0018
7FF8
0018
0018
0018
0018
0000
0000
0000
0000
0000
ENDCHAR
STARTCHAR U+016A
ENCODING 362
SWIDTH 960 0
DWIDTH 16 0
BBX 16 16 0 -2
BITMAP
0000
0000
0000
7FF8
6000
6000
7FF0
6000
6000
3FF8
0000
0000
0000
0000
0000
0000
ENDCHAR
STARTCHAR U+016B
ENCODING 363
SWIDTH 960 0
DWIDTH 16 0
BBX 16 16 0 -2
BITMAP
0000
0000
0000
7FF8
0000
1860
1860
1860
1860
7FF8
0000
0000
0000
0000
0000
0000
ENDCHAR
STARTCHAR U+016C
ENCODING 364
SWIDTH 960 0
DWIDTH 16 0
BBX 16 16 0 -2
BITMAP
0000
0000
0000
0FC0
0000
7FF8
0000
1FE0
3030
3030
1FE0
0000
0000
0000
0000
0000
ENDCHAR
STARTCHAR U+016D
ENCODING 365
SWIDTH 960 0
DWIDTH 16 0
BBX 16 16 0 -2
BITMAP
0000
0000
FF00
0300
0300
0600
0600
1C00
F000
0000
0000
0000
0000
0000
0000
0000
ENDCHAR
STARTCHAR U+016E
ENCODING 366
SWIDTH 960 0
DWIDTH 16 0
BBX 16 16 0 -2
BITMAP
0000
0000
FF00
1B00
1B00
3600
3600
6C00
D800
0000
0000
0000
0000
0000
0000
0000
ENDCHAR
STARTCHAR U+016F
ENCODING 367
SWIDTH 960 0
DWIDTH 16 0
BBX 16 16 0 -2
BITMAP
0000
0000
C000
C000
C000
C000
C000
C000
7F00
0000
0000
0000
0000
0000
0000
0000
ENDCHAR
STARTCHAR U+0170
ENCODING 368
SWIDTH 960 0
DWIDTH 16 0
BBX 16 16 0 -2
BITMAP
0000
0000
FF00
C000
C000
C000
C000
C000
7F00
0000
0000
0000
0000
0000
0000
0000
ENDCHAR
STARTCHAR U+0171
ENCODING 369
SWIDTH 960 0
DWIDTH 16 0
BBX 16 16 0 -2
BITMAP
0000
0000
FF00
CC00
CC00
CC00
CC00
CC00
7700
0000
0000
0000
0000
0000
0000
0000
ENDCHAR
STARTCHAR U+0172
ENCODING 370
SWIDTH 960 0
DWIDTH 16 0
BBX 16 16 0 -2
BITMAP
0000
0000
FF00
0300
0300
FE00
C000
C000
7F00
0000
0000
0000
0000
0000
0000
0000
ENDCHAR
STARTCHAR U+0173
ENCODING 371
SWIDTH 960 0
DWIDTH 16 0
BBX 16 16 0 -2
BITMAP
0000
0000
FF00
C300
C300
C300
C300
C300
7F00
0000
0000
0000
0000
0000
0000
0000
ENDCHAR
STARTCHAR U+0174
ENCODING 372
SWIDTH 960 0
DWIDTH 16 0
BBX 16 16 0 -2
BITMAP
0000
0000
C300
C300
C300
FF00
C300
C300
7F00
0000
0000
0000
0000
0000
0000
0000
ENDCHAR
STARTCHAR U+0175
ENCODING 373
SWIDTH 960 0
DWIDTH 16 0
BBX 16 16 0 -2
BITMAP
0000
0000
DB00
DB00
DB00
FF00
DB00
DB00
7F00
0000
0000
0000
0000
0000
0000
0000
ENDCHAR
STARTCHAR U+0176
ENCODING 374
SWIDTH 960 0
DWIDTH 16 0
BBX 16 16 0 -2
BITMAP
0000
0000
1800
1800
1800
1800
3C00
6600
C300
0000
0000
0000
0000
0000
0000
0000
ENDCHAR
STARTCHAR U+0177
ENCODING 375
SWIDTH 960 0
DWIDTH 16 0
BBX 16 16 0 -2
BITMAP
0000
0000
6600
6600
6600
6600
FF00
DB00
DB00
0000
0000
0000
0000
0000
0000
0000
ENDCHAR
STARTCHAR U+0178
ENCODING 376
SWIDTH 960 0
DWIDTH 16 0
BBX 16 16 0 -2
BITMAP
0000
0000
3C00
6600
C300
C300
C300
6600
3C00
0000
0000
0000
0000
0000
0000
0000
ENDCHAR
STARTCHAR U+0179
ENCODING 377
SWIDTH 960 0
DWIDTH 16 0
BBX 16 16 0 -2
BITMAP
0000
0000
FF00
1800
1800
1800
3C00
6600
C300
0000
0000
0000
0000
0000
0000
0000
ENDCHAR
STARTCHAR U+017A
ENCODING 378
SWIDTH 960 0
DWIDTH 16 0
BBX 16 16 0 -2
BITMAP
0000
0000
FF00
6600
6600
6600
FF00
DB00
DB00
0000
0000
0000
0000
0000
0000
0000
ENDCHAR
STARTCHAR U+017B
ENCODING 379
SWIDTH 960 0
DWIDTH 16 0
BBX 16 16 0 -2
BITMAP
0000
0000
1800
FF00
1800
1800
3C00
6600
C300
0000
0000
0000
0000
0000
0000
0000
ENDCHAR
STARTCHAR U+017C
ENCODING 380
SWIDTH 960 0
DWIDTH 16 0
BBX 16 16 0 -2
BITMAP
0000
0000
FF00
0300
0300
FE00
0600
1C00
F000
0000
0000
0000
0000
0000
0000
0000
ENDCHAR
STARTCHAR U+017D
ENCODING 381
SWIDTH 960 0
DWIDTH 16 0
BBX 16 16 0 -2
BITMAP
0000
0000
FF00
C000
C000
FC00
C000
C000
7F00
0000
0000
0000
0000
0000
0000
0000
ENDCHAR
STARTCHAR U+017E
ENCODING 382
SWIDTH 960 0
DWIDTH 16 0
BBX 16 16 0 -2
BITMAP
0000
0000
FF00
0000
6600
6600
6600
6600
FF00
0000
0000
0000
0000
0000
0000
0000
ENDCHAR
STARTCHAR U+017F
ENCODING 383
SWIDTH 960 0
DWIDTH 16 0
BBX 16 16 0 -2
BITMAP
0000
0000
1C00
FF80
3E00
6300
6300
6300
3E00
0000
0000
0000
0000
0000
0000
0000
ENDCHAR
STARTCHAR U+0180
ENCODING 384
SWIDTH 960 0
DWIDTH 16 0
BBX 16 16 0 -2
BITMAP
0000
0000
FF00
0300
0300
0300
0300
0300
0000
0000
0000
0000
0000
0000
0000
0000
ENDCHAR
STARTCHAR U+0181
ENCODING 385
SWIDTH 960 0
DWIDTH 16 0
BBX 16 16 0 -2
BITMAP
0000
0000
FF00
3300
3300
3300
6600
0000
0000
0000
0000
0000
0000
0000
0000
0000
ENDCHAR
STARTCHAR U+0182
ENCODING 386
SWIDTH 960 0
DWIDTH 16 0
BBX 16 16 0 -2
BITMAP
0000
0000
C000
C000
C000
C000
7F00
0000
0000
0000
0000
0000
0000
0000
0000
0000
ENDCHAR
STARTCHAR U+0183
ENCODING 387
SWIDTH 960 0
DWIDTH 16 0
BBX 16 16 0 -2
BITMAP
0000
0000
FF00
C000
C000
C000
7F00
0000
0000
0000
0000
0000
0000
0000
0000
0000
ENDCHAR
STARTCHAR U+0184
ENCODING 388
SWIDTH 960 0
DWIDTH 16 0
BBX 16 16 0 -2
BITMAP
0000
0000
FF00
CC00
CC00
CC00
7700
0000
0000
0000
0000
0000
0000
0000
0000
0000
ENDCHAR
STARTCHAR U+0185
ENCODING 389
SWIDTH 960 0
DWIDTH 16 0
BBX 16 16 0 -2
BITMAP
0000
0000
FF00
0300
FE00
C000
7F00
0000
0000
0000
0000
0000
0000
0000
0000
0000
ENDCHAR
STARTCHAR U+0186
ENCODING 390
SWIDTH 960 0
DWIDTH 16 0
BBX 16 16 0 -2
BITMAP
0000
0000
FF00
C300
C300
C300
7F00
0000
0000
0000
0000
0000
0000
0000
0000
0000
ENDCHAR
STARTCHAR U+0187
ENCODING 391
SWIDTH 960 0
DWIDTH 16 0
BBX 16 16 0 -2
BITMAP
0000
0000
C300
C300
FF00
C300
7F00
0000
0000
0000
0000
0000
0000
0000
0000
0000
ENDCHAR
STARTCHAR U+0188
ENCODING 392
SWIDTH 960 0
DWIDTH 16 0
BBX 16 16 0 -2
BITMAP
0000
0000
DB00
DB00
FF00
DB00
7F00
0000
0000
0000
0000
0000
0000
0000
0000
0000
ENDCHAR
STARTCHAR U+0189
ENCODING 393
SWIDTH 960 0
DWIDTH 16 0
BBX 16 16 0 -2
BITMAP
0000
0000
1800
1800
3C00
6600
C300
0000
0000
0000
0000
0000
0000
0000
0000
0000
ENDCHAR
STARTCHAR U+018A
ENCODING 394
SWIDTH 960 0
DWIDTH 16 0
BBX 16 16 0 -2
BITMAP
0000
0000
6600
6600
6600
FF00
DB00
0000
0000
0000
0000
0000
0000
0000
0000
0000
ENDCHAR
STARTCHAR U+018B
ENCODING 395
SWIDTH 960 0
DWIDTH 16 0
BBX 16 16 0 -2
BITMAP
0000
0000
7E00
C300
C300
C300
7E00
0000
0000
0000
0000
0000
0000
0000
0000
0000
ENDCHAR
STARTCHAR U+018C
ENCODING 396
SWIDTH 960 0
DWIDTH 16 0
BBX 16 16 0 -2
BITMAP
0000
0000
FF00
1800
3C00
6600
C300
0000
0000
0000
0000
0000
0000
0000
0000
0000
ENDCHAR
STARTCHAR U+018D
ENCODING 397
SWIDTH 960 0
DWIDTH 16 0
BBX 16 16 0 -2
BITMAP
0000
0000
FF00
6600
6600
FF00
DB00
0000
0000
0000
0000
0000
0000
0000
0000
0000
ENDCHAR
STARTCHAR U+018E
ENCODING 398
SWIDTH 960 0
DWIDTH 16 0
BBX 16 16 0 -2
BITMAP
0000
0000
1800
FF00
3C00
6600
C300
0000
0000
0000
0000
0000
0000
0000
0000
0000
ENDCHAR
STARTCHAR U+018F
ENCODING 399
SWIDTH 960 0
DWIDTH 16 0
BBX 16 16 0 -2
BITMAP
0000
0000
FF00
0300
0300
FF00
0300
0300
0000
0000
0000
0000
0000
0000
0000
0000
ENDCHAR
STARTCHAR U+0190
ENCODING 400
SWIDTH 960 0
DWIDTH 16 0
BBX 16 16 0 -2
BITMAP
0000
0000
FF00
C000
FE00
C000
7F00
0000
0000
0000
0000
0000
0000
0000
0000
0000
ENDCHAR
STARTCHAR U+0191
ENCODING 401
SWIDTH 960 0
DWIDTH 16 0
BBX 16 16 0 -2
BITMAP
0000
0000
FF00
6600
6600
6600
FF00
0000
0000
0000
0000
0000
0000
0000
0000
0000
ENDCHAR
STARTCHAR U+0192
ENCODING 402
SWIDTH 960 0
DWIDTH 16 0
BBX 16 16 0 -2
BITMAP
0000
0000
1C00
FF80
6300
6300
3E00
0000
0000
0000
0000
0000
0000
0000
0000
0000
ENDCHAR
STARTCHAR U+0193
ENCODING 403
SWIDTH 960 0
DWIDTH 16 0
BBX 16 16 0 -2
BITMAP
0000
0000
7FF8
0018
0018
0018
0018
0018
0000
0000
0000
0000
0000
0000
0000
0000
ENDCHAR
STARTCHAR U+0194
ENCODING 404
SWIDTH 960 0
DWIDTH 16 0
BBX 16 16 0 -2
BITMAP
0000
0000
7FF8
0618
0618
0C18
1830
0000
0000
0000
0000
0000
0000
0000
0000
0000
ENDCHAR
STARTCHAR U+0195
ENCODING 405
SWIDTH 960 0
DWIDTH 16 0
BBX 16 16 0 -2
BITMAP
0000
0000
6000
6000
6000
6000
3FF8
0000
0000
0000
0000
0000
0000
0000
0000
0000
ENDCHAR
STARTCHAR U+0196
ENCODING 406
SWIDTH 960 0
DWIDTH 16 0
BBX 16 16 0 -2
BITMAP
0000
0000
7FF8
6000
6000
6000
3FF8
0000
0000
0000
0000
0000
0000
0000
0000
0000
ENDCHAR
STARTCHAR U+0197
ENCODING 407
SWIDTH 960 0
DWIDTH 16 0
BBX 16 16 0 -2
BITMAP
0000
0000
7FF8
6180
6180
6180
3EF8
0000
0000
0000
0000
0000
0000
0000
0000
0000
ENDCHAR
STARTCHAR U+0198
ENCODING 408
SWIDTH 960 0
DWIDTH 16 0
BBX 16 16 0 -2
BITMAP
0000
0000
7FF8
0018
7FF0
6000
3FF8
0000
0000
0000
0000
0000
0000
0000
0000
0000
ENDCHAR
STARTCHAR U+0199
ENCODING 409
SWIDTH 960 0
DWIDTH 16 0
BBX 16 16 0 -2
BITMAP
0000
0000
7FF8
6018
6018
6018
3FF8
0000
0000
0000
0000
0000
0000
0000
0000
0000
ENDCHAR
STARTCHAR U+019A
ENCODING 410
SWIDTH 960 0
DWIDTH 16 0
BBX 16 16 0 -2
BITMAP
0000
0000
6018
6018
7FF8
6018
3FF8
0000
0000
0000
0000
0000
0000
0000
0000
0000
ENDCHAR
STARTCHAR U+019B
ENCODING 411
SWIDTH 960 0
DWIDTH 16 0
BBX 16 16 0 -2
BITMAP
0000
0000
6318
6318
7FF8
6318
3FF8
0000
0000
0000
0000
0000
0000
0000
0000
0000
ENDCHAR
STARTCHAR U+019C
ENCODING 412
SWIDTH 960 0
DWIDTH 16 0
BBX 16 16 0 -2
BITMAP
0000
0000
0300
0300
0780
1CE0
7038
0000
0000
0000
0000
0000
0000
0000
0000
0000
ENDCHAR
STARTCHAR U+019D
ENCODING 413
SWIDTH 960 0
DWIDTH 16 0
BBX 16 16 0 -2
BITMAP
0000
0000
1860
1860
3CF0
6798
C30C
0000
0000
0000
0000
0000
0000
0000
0000
0000
ENDCHAR
STARTCHAR U+019E
ENCODING 414
SWIDTH 960 0
DWIDTH 16 0
BBX 16 16 0 -2
BITMAP
0000
0000
3FF0
6018
6018
6018
3FF0
0000
0000
0000
0000
0000
0000
0000
0000
0000
ENDCHAR
STARTCHAR U+019F
ENCODING 415
SWIDTH 960 0
DWIDTH 16 0
BBX 16 16 0 -2
BITMAP
0000
0000
7FF8
0300
0780
1CE0
7038
0000
0000
0000
0000
0000
0000
0000
0000
0000
ENDCHAR
STARTCHAR U+01A0
ENCODING 416
SWIDTH 960 0
DWIDTH 16 0
BBX 16 16 0 -2
BITMAP
0000
0000
7FF8
1860
3CF0
6798
C30C
0000
0000
0000
0000
0000
0000
0000
0000
0000
ENDCHAR
STARTCHAR U+01A1
ENCODING 417
SWIDTH 960 0
DWIDTH 16 0
BBX 16 16 0 -2
BITMAP
0000
0000
0300
7FF8
0780
1CE0
7038
0000
0000
0000
0000
0000
0000
0000
0000
0000
ENDCHAR
STARTCHAR U+01A2
ENCODING 418
SWIDTH 960 0
DWIDTH 16 0
BBX 16 16 0 -2
BITMAP
0000
0000
7FF8
0018
0018
7FF8
0018
0018
0000
0000
0000
0000
0000
0000
0000
0000
ENDCHAR
STARTCHAR U+01A3
ENCODING 419
SWIDTH 960 0
DWIDTH 16 0
BBX 16 16 0 -2
BITMAP
0000
0000
7FF8
6000
7FF0
6000
3FF8
0000
0000
0000
0000
0000
0000
0000
0000
0000
ENDCHAR
STARTCHAR U+01A4
ENCODING 420
SWIDTH 960 0
DWIDTH 16 0
BBX 16 16 0 -2
BITMAP
0000
0000
7FF8
1860
1860
1860
7FF8
0000
0000
0000
0000
0000
0000
0000
0000
0000
ENDCHAR
STARTCHAR U+01A5
ENCODING 421
SWIDTH 960 0
DWIDTH 16 0
BBX 16 16 0 -2
BITMAP
0000
0000
0300
7FF8
1860
3030
1FE0
0000
0000
0000
0000
0000
0000
0000
0000
0000
ENDCHAR
STARTCHAR U+01A6
ENCODING 422
SWIDTH 960 0
DWIDTH 16 0
BBX 16 16 0 -2
BITMAP
0000
0000
0018
0018
0018
0018
0018
001E
0018
0018
0018
0018
0018
0018
0018
0018
ENDCHAR
STARTCHAR U+01A7
ENCODING 423
SWIDTH 960 0
DWIDTH 16 0
BBX 16 16 0 -2
BITMAP
0000
0000
0036
0036
0036
0036
0036
003E
0036
0036
0036
0036
0036
0036
0036
0036
ENDCHAR
STARTCHAR U+01A8
ENCODING 424
SWIDTH 960 0
DWIDTH 16 0
BBX 16 16 0 -2
BITMAP
0000
0000
0018
0018
0018
0018
001E
0018
0018
001E
0018
0018
0018
0018
0018
0018
ENDCHAR
STARTCHAR U+01A9
ENCODING 425
SWIDTH 960 0
DWIDTH 16 0
BBX 16 16 0 -2
BITMAP
0000
0000
0036
0036
0036
0036
003E
0036
0036
003E
0036
0036
0036
0036
0036
0036
ENDCHAR
STARTCHAR U+01AA
ENCODING 426
SWIDTH 960 0
DWIDTH 16 0
BBX 16 16 0 -2
BITMAP
0000
0000
0018
0018
0018
0018
0018
00F8
0018
0018
0018
0018
0018
0018
0018
0018
ENDCHAR
STARTCHAR U+01AB
ENCODING 427
SWIDTH 960 0
DWIDTH 16 0
BBX 16 16 0 -2
BITMAP
0000
0000
0036
0036
0036
0036
0036
00F6
0036
0036
0036
0036
0036
0036
0036
0036
ENDCHAR
STARTCHAR U+01AC
ENCODING 428
SWIDTH 960 0
DWIDTH 16 0
BBX 16 16 0 -2
BITMAP
0000
0000
0018
0018
0018
0018
00F8
0018
0018
00F8
0018
0018
0018
0018
0018
0018
ENDCHAR
STARTCHAR U+01AD
ENCODING 429
SWIDTH 960 0
DWIDTH 16 0
BBX 16 16 0 -2
BITMAP
0000
0000
0036
0036
0036
0036
00F6
0036
0036
00F6
0036
0036
0036
0036
0036
0036
ENDCHAR
STARTCHAR U+01AE
ENCODING 430
SWIDTH 960 0
DWIDTH 16 0
BBX 16 16 0 -2
BITMAP
0000
0000
0000
0000
0000
0000
0000
0000
0000
0000
0300
0300
0300
FFFC
0000
0000
ENDCHAR
STARTCHAR U+01AF
ENCODING 431
SWIDTH 960 0
DWIDTH 16 0
BBX 16 16 0 -2
BITMAP
0000
0000
0018
0018
0018
0018
0018
001E
0018
0018
1818
1818
1818
FFD8
0018
0018
ENDCHAR
STARTCHAR U+01B0
ENCODING 432
SWIDTH 960 0
DWIDTH 16 0
BBX 16 16 0 -2
BITMAP
0000
0000
0036
0036
0036
0036
0036
003E
0036
0036
1836
1836
1836
FFB6
0036
0036
ENDCHAR
STARTCHAR U+01B1
ENCODING 433
SWIDTH 960 0
DWIDTH 16 0
BBX 16 16 0 -2
BITMAP
0000
0000
0018
0018
0018
0018
0018
0018
0018
0018
1818
1818
1818
FFD8
0018
0018
ENDCHAR
STARTCHAR U+01B2
ENCODING 434
SWIDTH 960 0
DWIDTH 16 0
BBX 16 16 0 -2
BITMAP
0000
0000
0000
0000
0000
0000
0000
0000
0000
0000
0CC0
0CC0
0CC0
FFFC
0000
0000
ENDCHAR
STARTCHAR U+01B3
ENCODING 435
SWIDTH 960 0
DWIDTH 16 0
BBX 16 16 0 -2
BITMAP
0000
0000
0000
0000
0000
0000
0000
0000
0000
FFFC
0300
0300
0300
0300
0300
0300
ENDCHAR
STARTCHAR U+01B4
ENCODING 436
SWIDTH 960 0
DWIDTH 16 0
BBX 16 16 0 -2
BITMAP
0000
0000
0018
0018
0018
0018
0018
0018
0018
FFD8
1818
1818
18F8
1818
1818
1818
ENDCHAR
STARTCHAR U+01B5
ENCODING 437
SWIDTH 960 0
DWIDTH 16 0
BBX 16 16 0 -2
BITMAP
0000
0000
0036
0036
0036
0036
0036
0036
0036
FFB6
1836
1836
19F6
1836
1836
1836
ENDCHAR
STARTCHAR U+01B6
ENCODING 438
SWIDTH 960 0
DWIDTH 16 0
BBX 16 16 0 -2
BITMAP
0000
0000
0018
0018
0018
0018
0018
0018
0018
FFD8
1818
1818
1818
1818
1818
1818
ENDCHAR
STARTCHAR U+01B7
ENCODING 439
SWIDTH 960 0
DWIDTH 16 0
BBX 16 16 0 -2
BITMAP
0000
0000
0000
0000
0000
0000
0000
0000
0000
FFFC
1860
1860
1860
1860
1860
1860
ENDCHAR
STARTCHAR U+01B8
ENCODING 440
SWIDTH 960 0
DWIDTH 16 0
BBX 16 16 0 -2
BITMAP
0000
0000
0000
0000
0000
0000
0000
0000
0000
0000
0000
0000
0000
FFFC
0000
0000
ENDCHAR
STARTCHAR U+01B9
ENCODING 441
SWIDTH 960 0
DWIDTH 16 0
BBX 16 16 0 -2
BITMAP
0000
0000
0018
0018
0018
0018
0018
0018
0018
0018
0018
0018
0018
FFD8
0018
0018
ENDCHAR
STARTCHAR U+01BA
ENCODING 442
SWIDTH 960 0
DWIDTH 16 0
BBX 16 16 0 -2
BITMAP
0000
0000
0018
0018
0018
0018
0018
0018
0018
0018
0018
0018
0018
0018
0018
0018
ENDCHAR
STARTCHAR U+01BB
ENCODING 443
SWIDTH 960 0
DWIDTH 16 0
BBX 16 16 0 -2
BITMAP
0000
0000
0018
0018
0018
001E
0018
0018
0018
0018
0018
0018
0000
0000
0000
0000
ENDCHAR
STARTCHAR U+01BC
ENCODING 444
SWIDTH 960 0
DWIDTH 16 0
BBX 16 16 0 -2
BITMAP
0000
0000
0036
0036
0036
003E
0036
0036
0036
0036
0036
0036
0000
0000
0000
0000
ENDCHAR
STARTCHAR U+01BD
ENCODING 445
SWIDTH 960 0
DWIDTH 16 0
BBX 16 16 0 -2
BITMAP
0000
0000
0018
0018
001E
0018
0018
001E
0018
0018
0018
0018
0000
0000
0000
0000
ENDCHAR
STARTCHAR U+01BE
ENCODING 446
SWIDTH 960 0
DWIDTH 16 0
BBX 16 16 0 -2
BITMAP
0000
0000
0036
0036
003E
0036
0036
003E
0036
0036
0036
0036
0000
0000
0000
0000
ENDCHAR
STARTCHAR U+01BF
ENCODING 447
SWIDTH 960 0
DWIDTH 16 0
BBX 16 16 0 -2
BITMAP
0000
0000
0018
0018
0018
00F8
0018
0018
0018
0018
0018
0018
0000
0000
0000
0000
ENDCHAR
STARTCHAR U+01C0
ENCODING 448
SWIDTH 960 0
DWIDTH 16 0
BBX 16 16 0 -2
BITMAP
0000
0000
0036
0036
0036
00F6
0036
0036
0036
0036
0036
0036
0000
0000
0000
0000
ENDCHAR
STARTCHAR U+01C1
ENCODING 449
SWIDTH 960 0
DWIDTH 16 0
BBX 16 16 0 -2
BITMAP
0000
0000
0018
0018
00F8
0018
0018
00F8
0018
0018
0018
0018
0000
0000
0000
0000
ENDCHAR
STARTCHAR U+01C2
ENCODING 450
SWIDTH 960 0
DWIDTH 16 0
BBX 16 16 0 -2
BITMAP
0000
0000
0036
0036
00F6
0036
0036
00F6
0036
0036
0036
0036
0000
0000
0000
0000
ENDCHAR
STARTCHAR U+01C3
ENCODING 451
SWIDTH 960 0
DWIDTH 16 0
BBX 16 16 0 -2
BITMAP
0000
0000
0000
0000
0000
0000
0000
0300
0300
FFFC
0000
0000
0000
0000
0000
0000
ENDCHAR
STARTCHAR U+01C4
ENCODING 452
SWIDTH 960 0
DWIDTH 16 0
BBX 16 16 0 -2
BITMAP
0000
0000
0018
0018
0018
001E
0018
1818
1818
FFD8
0018
0018
0000
0000
0000
0000
ENDCHAR
STARTCHAR U+01C5
ENCODING 453
SWIDTH 960 0
DWIDTH 16 0
BBX 16 16 0 -2
BITMAP
0000
0000
0036
0036
0036
003E
0036
1836
1836
FFB6
0036
0036
0000
0000
0000
0000
ENDCHAR
STARTCHAR U+01C6
ENCODING 454
SWIDTH 960 0
DWIDTH 16 0
BBX 16 16 0 -2
BITMAP
0000
0000
0018
0018
0018
0018
0018
1818
1818
FFD8
0018
0018
0000
0000
0000
0000
ENDCHAR
STARTCHAR U+01C7
ENCODING 455
SWIDTH 960 0
DWIDTH 16 0
BBX 16 16 0 -2
BITMAP
0000
0000
0000
0000
0000
0000
0000
0CC0
0CC0
FFFC
0000
0000
0000
0000
0000
0000
ENDCHAR
STARTCHAR U+01C8
ENCODING 456
SWIDTH 960 0
DWIDTH 16 0
BBX 16 16 0 -2
BITMAP
0000
0000
0000
0000
0000
0000
0000
0000
0000
FFFC
0300
0300
0300
0000
0000
0000
ENDCHAR
STARTCHAR U+01C9
ENCODING 457
SWIDTH 960 0
DWIDTH 16 0
BBX 16 16 0 -2
BITMAP
0000
0000
0018
0018
0018
0018
0018
0018
FFD8
1818
18F8
0018
0000
0000
0000
0000
ENDCHAR
STARTCHAR U+01CA
ENCODING 458
SWIDTH 960 0
DWIDTH 16 0
BBX 16 16 0 -2
BITMAP
0000
0000
0036
0036
0036
0036
0036
0036
FFB6
3036
31F6
0036
0000
0000
0000
0000
ENDCHAR
STARTCHAR U+01CB
ENCODING 459
SWIDTH 960 0
DWIDTH 16 0
BBX 16 16 0 -2
BITMAP
0000
0000
0018
0018
0018
0018
0018
0018
FFD8
1818
1818
0018
0000
0000
0000
0000
ENDCHAR
STARTCHAR U+01CC
ENCODING 460
SWIDTH 960 0
DWIDTH 16 0
BBX 16 16 0 -2
BITMAP
0000
0000
0000
0000
0000
0000
0000
0000
0000
FFFC
0CC0
0CC0
0CC0
0000
0000
0000
ENDCHAR
STARTCHAR U+01CD
ENCODING 461
SWIDTH 960 0
DWIDTH 16 0
BBX 16 16 0 -2
BITMAP
0000
0000
0000
0000
0000
0000
0000
0000
0000
FFFC
0000
0000
0000
0000
0000
0000
ENDCHAR
STARTCHAR U+01CE
ENCODING 462
SWIDTH 960 0
DWIDTH 16 0
BBX 16 16 0 -2
BITMAP
0000
0000
0018
0018
0018
0018
0018
0018
0018
FFD8
0018
0018
0000
0000
0000
0000
ENDCHAR
STARTCHAR U+01CF
ENCODING 463
SWIDTH 960 0
DWIDTH 16 0
BBX 16 16 0 -2
BITMAP
0000
0000
0018
0018
0018
0018
0018
0018
0018
0018
0018
0018
0000
0000
0000
0000
ENDCHAR
STARTCHAR U+01D0
ENCODING 464
SWIDTH 960 0
DWIDTH 16 0
BBX 16 16 0 -2
BITMAP
0000
0000
0018
0018
0018
001E
0018
0018
0018
0018
0000
0000
0000
0000
0000
0000
ENDCHAR
STARTCHAR U+01D1
ENCODING 465
SWIDTH 960 0
DWIDTH 16 0
BBX 16 16 0 -2
BITMAP
0000
0000
0036
0036
0036
003E
0036
0036
0036
0036
0000
0000
0000
0000
0000
0000
ENDCHAR
STARTCHAR U+01D2
ENCODING 466
SWIDTH 960 0
DWIDTH 16 0
BBX 16 16 0 -2
BITMAP
0000
0000
0018
0018
001E
0018
0018
001E
0018
0018
0000
0000
0000
0000
0000
0000
ENDCHAR
STARTCHAR U+01D3
ENCODING 467
SWIDTH 960 0
DWIDTH 16 0
BBX 16 16 0 -2
BITMAP
0000
0000
0036
0036
003E
0036
0036
003E
0036
0036
0000
0000
0000
0000
0000
0000
ENDCHAR
STARTCHAR U+01D4
ENCODING 468
SWIDTH 960 0
DWIDTH 16 0
BBX 16 16 0 -2
BITMAP
0000
0000
0018
0018
0018
00F8
0018
0018
0018
0018
0000
0000
0000
0000
0000
0000
ENDCHAR
STARTCHAR U+01D5
ENCODING 469
SWIDTH 960 0
DWIDTH 16 0
BBX 16 16 0 -2
BITMAP
0000
0000
0036
0036
0036
00F6
0036
0036
0036
0036
0000
0000
0000
0000
0000
0000
ENDCHAR
STARTCHAR U+01D6
ENCODING 470
SWIDTH 960 0
DWIDTH 16 0
BBX 16 16 0 -2
BITMAP
0000
0000
0018
0018
00F8
0018
0018
00F8
0018
0018
0000
0000
0000
0000
0000
0000
ENDCHAR
STARTCHAR U+01D7
ENCODING 471
SWIDTH 960 0
DWIDTH 16 0
BBX 16 16 0 -2
BITMAP
0000
0000
0036
0036
00F6
0036
0036
00F6
0036
0036
0000
0000
0000
0000
0000
0000
ENDCHAR
STARTCHAR U+01D8
ENCODING 472
SWIDTH 960 0
DWIDTH 16 0
BBX 16 16 0 -2
BITMAP
0000
0000
0000
0000
0000
0000
0000
0300
0300
FFFC
0000
0000
0000
0000
0000
0000
ENDCHAR
STARTCHAR U+01D9
ENCODING 473
SWIDTH 960 0
DWIDTH 16 0
BBX 16 16 0 -2
BITMAP
0000
0000
0018
0018
0018
001E
0018
1818
1818
FFD8
0000
0000
0000
0000
0000
0000
ENDCHAR
STARTCHAR U+01DA
ENCODING 474
SWIDTH 960 0
DWIDTH 16 0
BBX 16 16 0 -2
BITMAP
0000
0000
0036
0036
0036
003E
0036
1836
1836
FFB6
0000
0000
0000
0000
0000
0000
ENDCHAR
STARTCHAR U+01DB
ENCODING 475
SWIDTH 960 0
DWIDTH 16 0
BBX 16 16 0 -2
BITMAP
0000
0000
0018
0018
0018
0018
0018
1818
1818
FFD8
0000
0000
0000
0000
0000
0000
ENDCHAR
STARTCHAR U+01DC
ENCODING 476
SWIDTH 960 0
DWIDTH 16 0
BBX 16 16 0 -2
BITMAP
0000
0000
0000
0000
0000
0000
0000
0CC0
0CC0
FFFC
0000
0000
0000
0000
0000
0000
ENDCHAR
STARTCHAR U+01DD
ENCODING 477
SWIDTH 960 0
DWIDTH 16 0
BBX 16 16 0 -2
BITMAP
0000
0000
0000
0000
0000
0000
0000
0000
FFFC
0300
0300
0000
0000
0000
0000
0000
ENDCHAR
STARTCHAR U+01DE
ENCODING 478
SWIDTH 960 0
DWIDTH 16 0
BBX 16 16 0 -2
BITMAP
0000
0000
0018
0018
0018
00F8
0018
0018
FFD8
1818
1800
0000
0000
0000
0000
0000
ENDCHAR
STARTCHAR U+01DF
ENCODING 479
SWIDTH 960 0
DWIDTH 16 0
BBX 16 16 0 -2
BITMAP
0000
0000
0036
0036
0036
00F6
0036
0036
FFB6
3036
3000
0000
0000
0000
0000
0000
ENDCHAR
STARTCHAR U+01E0
ENCODING 480
SWIDTH 960 0
DWIDTH 16 0
BBX 16 16 0 -2
BITMAP
0000
0000
0018
0018
0018
0018
0018
0018
FFD8
1818
1800
0000
0000
0000
0000
0000
ENDCHAR
STARTCHAR U+01E1
ENCODING 481
SWIDTH 960 0
DWIDTH 16 0
BBX 16 16 0 -2
BITMAP
0000
0000
0000
0000
0000
0000
0000
0000
FFFC
0CC0
0CC0
0000
0000
0000
0000
0000
ENDCHAR
STARTCHAR U+01E2
ENCODING 482
SWIDTH 960 0
DWIDTH 16 0
BBX 16 16 0 -2
BITMAP
0000
0000
0000
0000
0000
0000
0000
0000
FFFC
0000
0000
0000
0000
0000
0000
0000
ENDCHAR
STARTCHAR U+01E3
ENCODING 483
SWIDTH 960 0
DWIDTH 16 0
BBX 16 16 0 -2
BITMAP
0000
0000
0018
0018
0018
0018
0018
0018
FFD8
0018
0000
0000
0000
0000
0000
0000
ENDCHAR
STARTCHAR U+01E4
ENCODING 484
SWIDTH 960 0
DWIDTH 16 0
BBX 16 16 0 -2
BITMAP
0000
0000
0018
0018
0018
0018
0018
0018
0018
0018
0000
0000
0000
0000
0000
0000
ENDCHAR
STARTCHAR U+01E5
ENCODING 485
SWIDTH 960 0
DWIDTH 16 0
BBX 16 16 0 -2
BITMAP
0000
0000
0000
0000
0000
0000
0000
0000
0000
0000
0000
7FF0
0018
0018
0018
0018
ENDCHAR
STARTCHAR U+01E6
ENCODING 486
SWIDTH 960 0
DWIDTH 16 0
BBX 16 16 0 -2
BITMAP
0000
0000
0000
0000
0000
0000
0000
0000
0000
0000
0000
7DF0
0618
0618
0618
0618
ENDCHAR
STARTCHAR U+01E7
ENCODING 487
SWIDTH 960 0
DWIDTH 16 0
BBX 16 16 0 -2
BITMAP
0000
0000
0000
0000
0000
0000
0000
0000
0000
0000
0000
7C60
0660
0660
06F0
079C
ENDCHAR
STARTCHAR U+01E8
ENCODING 488
SWIDTH 960 0
DWIDTH 16 0
BBX 16 16 0 -2
BITMAP
0000
0000
0000
0000
0000
0000
0000
0000
0000
0000
0000
6000
6000
6000
6000
3FF8
ENDCHAR
STARTCHAR U+01E9
ENCODING 489
SWIDTH 960 0
DWIDTH 16 0
BBX 16 16 0 -2
BITMAP
0000
0000
0000
0000
0000
0000
0000
0000
0000
0000
0000
61F8
6060
6060
60F0
3F9C
ENDCHAR
STARTCHAR U+01EA
ENCODING 490
SWIDTH 960 0
DWIDTH 16 0
BBX 16 16 0 -2
BITMAP
0000
0000
0000
0000
0000
0000
0000
0000
0000
0000
0000
60F0
6000
63FC
6198
3EF0
ENDCHAR
STARTCHAR U+01EB
ENCODING 491
SWIDTH 960 0
DWIDTH 16 0
BBX 16 16 0 -2
BITMAP
0000
0000
0000
0000
0000
0000
0000
0000
0000
0000
0000
7FF8
6000
6000
6000
3FF8
ENDCHAR
STARTCHAR U+01EC
ENCODING 492
SWIDTH 960 0
DWIDTH 16 0
BBX 16 16 0 -2
BITMAP
0000
0000
0000
0000
0000
0000
0000
0000
0000
0000
0000
7FF8
0018
7FF0
6000
3FF8
ENDCHAR
STARTCHAR U+01ED
ENCODING 493
SWIDTH 960 0
DWIDTH 16 0
BBX 16 16 0 -2
BITMAP
0000
0000
0000
0000
0000
0000
0000
0000
0000
0000
0000
7DF0
0618
7C18
6018
3E18
ENDCHAR
STARTCHAR U+01EE
ENCODING 494
SWIDTH 960 0
DWIDTH 16 0
BBX 16 16 0 -2
BITMAP
0000
0000
0000
0000
0000
0000
0000
0000
0000
0000
0000
7DF8
0798
7D98
6198
3EF8
ENDCHAR
STARTCHAR U+01EF
ENCODING 495
SWIDTH 960 0
DWIDTH 16 0
BBX 16 16 0 -2
BITMAP
0000
0000
0000
0000
0000
0000
0000
0000
0000
0000
0000
7D98
0798
7DF8
6198
3EF8
ENDCHAR
STARTCHAR U+01F0
ENCODING 496
SWIDTH 960 0
DWIDTH 16 0
BBX 16 16 0 -2
BITMAP
0000
0000
0000
0000
0000
0000
0000
0000
0000
0000
0000
7C60
0660
7C60
60F0
3F9C
ENDCHAR
STARTCHAR U+01F1
ENCODING 497
SWIDTH 960 0
DWIDTH 16 0
BBX 16 16 0 -2
BITMAP
0000
0000
0000
0000
0000
0000
0000
0000
0000
0000
0000
7DF8
0780
7DF8
6180
3EF8
ENDCHAR
STARTCHAR U+01F2
ENCODING 498
SWIDTH 960 0
DWIDTH 16 0
BBX 16 16 0 -2
BITMAP
0000
0000
0000
0000
0000
0000
0000
0000
0000
0000
0000
7DFC
06D8
7CD8
60D8
3FFC
ENDCHAR
STARTCHAR U+01F3
ENCODING 499
SWIDTH 960 0
DWIDTH 16 0
BBX 16 16 0 -2
BITMAP
0000
0000
0000
0000
0000
0000
0000
0000
0000
0000
0000
7CF0
0600
7FFC
6198
3EF0
ENDCHAR
STARTCHAR U+01F4
ENCODING 500
SWIDTH 960 0
DWIDTH 16 0
BBX 16 16 0 -2
BITMAP
0000
0000
0000
0000
0000
0000
0000
0000
0000
0000
0000
7FF8
6018
6018
6018
3FF8
ENDCHAR
STARTCHAR U+01F5
ENCODING 501
SWIDTH 960 0
DWIDTH 16 0
BBX 16 16 0 -2
BITMAP
0000
0000
0000
0000
0000
0000
0000
0000
0000
0000
0000
6018
6018
7FF8
6018
3FF8
ENDCHAR
STARTCHAR U+01F6
ENCODING 502
SWIDTH 960 0
DWIDTH 16 0
BBX 16 16 0 -2
BITMAP
0000
0000
0000
0000
0000
0000
0000
0000
0000
0000
0000
6660
6660
7E60
66F0
3F9C
ENDCHAR
STARTCHAR U+01F7
ENCODING 503
SWIDTH 960 0
DWIDTH 16 0
BBX 16 16 0 -2
BITMAP
0000
0000
0000
0000
0000
0000
0000
0000
0000
0000
0000
0300
0300
0780
1CE0
7038
ENDCHAR
STARTCHAR U+01F8
ENCODING 504
SWIDTH 960 0
DWIDTH 16 0
BBX 16 16 0 -2
BITMAP
0000
0000
0000
0000
0000
0000
0000
0000
0000
0000
0000
0000
1860
1860
3CF0
E79C
ENDCHAR
STARTCHAR U+01F9
ENCODING 505
SWIDTH 960 0
DWIDTH 16 0
BBX 16 16 0 -2
BITMAP
0000
0000
0000
0000
0000
0000
0000
0000
0000
0000
0000
3FF0
6018
6018
6018
3FF0
ENDCHAR
STARTCHAR U+01FA
ENCODING 506
SWIDTH 960 0
DWIDTH 16 0
BBX 16 16 0 -2
BITMAP
0000
0000
0000
0000
0000
0000
0000
0000
0000
0000
0000
7FF8
0300
0780
1CE0
7038
ENDCHAR
STARTCHAR U+01FB
ENCODING 507
SWIDTH 960 0
DWIDTH 16 0
BBX 16 16 0 -2
BITMAP
0000
0000
0000
0000
0000
0000
0000
0000
0000
0000
0000
0FC0
0000
7FF8
0CC0
7878
ENDCHAR
STARTCHAR U+01FC
ENCODING 508
SWIDTH 960 0
DWIDTH 16 0
BBX 16 16 0 -2
BITMAP
0000
0000
0000
0000
0000
0000
0000
0000
0000
0000
0000
7FF0
0018
7FF8
0018
0018
ENDCHAR
STARTCHAR U+01FD
ENCODING 509
SWIDTH 960 0
DWIDTH 16 0
BBX 16 16 0 -2
BITMAP
0000
0000
0000
0000
0000
0000
0000
0000
0000
0000
0000
7FF8
6000
7FF0
6000
3FF8
ENDCHAR
STARTCHAR U+01FE
ENCODING 510
SWIDTH 960 0
DWIDTH 16 0
BBX 16 16 0 -2
BITMAP
0000
0000
0000
0000
0000
0000
0000
0000
0000
0000
0000
7FF8
1860
1860
1860
7FF8
ENDCHAR
STARTCHAR U+01FF
ENCODING 511
SWIDTH 960 0
DWIDTH 16 0
BBX 16 16 0 -2
BITMAP
0000
0000
0000
0000
0000
0000
0000
0000
0000
0000
0000
0FC0
0000
7FF8
3030
1FE0
ENDCHAR
ENDFONT
